<svg width="101" height="19" viewBox="0 0 101 19" fill="none" xmlns="http://www.w3.org/2000/svg">
<g id="Listerine">
<g id="Logo">
<path id="Vector" d="M99.1693 1.56133C99.1693 1.689 99.1011 1.77265 98.9645 1.77265H98.5856V1.35147H98.9645C99.0983 1.35147 99.1693 1.43365 99.1693 1.56279V1.56133ZM99.0662 1.92673C99.2279 1.89151 99.3546 1.73889 99.3546 1.55692C99.3546 1.33386 99.2223 1.18124 98.9617 1.18124H98.41V2.46384H98.5856V1.94728H98.8837L99.1819 2.46384H99.3728L99.0662 1.92673ZM99.9008 1.83722C99.9008 2.45357 99.4856 2.94812 98.8642 2.94812C98.2428 2.94812 97.8165 2.45063 97.8165 1.83428C97.8165 1.21793 98.2247 0.724849 98.8503 0.724849C99.4759 0.724849 99.9008 1.22086 99.9008 1.83722ZM100.04 1.83722C100.04 1.14749 99.5483 0.592773 98.8531 0.592773C98.1579 0.592773 97.6772 1.14309 97.6772 1.83428C97.6772 2.52547 98.1732 3.08166 98.867 3.08166C99.5608 3.08166 100.042 2.52694 100.042 1.83722H100.04Z" fill="black"/>
<g id="Logo_2">
<path id="Vector_2" d="M39.2322 0.597181L28.4666 0.589844V4.69885H31.2545L31.2475 18.442H36.2757L36.273 4.70325L39.2364 4.70032L39.2322 0.597181Z" fill="black"/>
<path id="Vector_3" d="M10.388 0.591311V18.442H15.2838L15.2824 0.589844L10.388 0.591311Z" fill="black"/>
<path id="Vector_4" d="M71.6041 0.591311V18.442H76.1419L76.1335 10.3693L80.0011 18.442H85.5379L85.5407 0.589844H80.6267V9.41247L76.245 0.601584L71.6041 0.591311Z" fill="black"/>
<path id="Vector_5" d="M0.00696619 0.589844L0 18.442H9.69555L9.69833 14.2538L5.04492 14.2567L5.0491 0.589844H0.00696619Z" fill="black"/>
<path id="Vector_6" d="M86.9464 0.589844L86.9409 18.442H97.4096L97.4124 14.2494L92.0624 14.2538V11.442H96.4818L96.4831 7.3653L92.0624 7.36971V4.70325H97.4124L97.4096 0.589844H86.9464Z" fill="black"/>
<path id="Vector_7" d="M39.9233 0.589844L39.9205 18.442H50.3893V14.2494L45.0378 14.2538L45.0364 11.442L49.4656 11.4347V7.3653L45.0378 7.36971L45.0364 4.70325H50.3907V0.589844H39.9233Z" fill="black"/>
<path id="Vector_8" d="M57.896 4.85147C58.9423 4.85147 59.7922 5.72904 59.7922 6.77977C59.7922 7.8305 58.9604 8.70807 57.9141 8.70807L55.9497 8.7022L55.9455 4.84854L57.8877 4.85587L57.8974 4.85147H57.896ZM61.8236 10.9519C63.5219 10.02 64.6672 8.1739 64.6672 6.09004C64.6672 3.09487 62.2499 0.589844 59.2684 0.589844H51.0845V18.442H55.9483V9.35377C55.9483 9.35377 59.9594 18.2087 59.9956 18.442H70.2025L70.1997 0.614791L65.3359 0.611856L65.3276 18.442L61.8222 10.9519H61.8236Z" fill="black"/>
<path id="Vector_9" d="M16.0794 12.6147H20.5628L20.5614 13.3411C20.5614 14.5224 21.6718 15.0991 22.4339 15.0991C23.5778 15.0991 24.2605 14.3404 24.2605 13.3411C24.2605 11.9161 22.9996 11.7312 21.6495 11.269C19.8341 10.6467 18.8603 10.0773 17.7861 9.14841C16.7439 8.24003 16.1044 6.9002 16.1044 5.14507C16.1031 2.18071 19.0052 0 22.427 0C25.8488 0 28.7202 2.30251 28.691 5.1436V5.87001L24.2089 5.86708L24.2298 5.14507C24.188 4.23375 23.4078 3.61739 22.3949 3.61739C21.2664 3.61739 20.7969 4.33941 20.7969 5.16267C20.7969 6.38804 21.683 6.65513 22.7683 6.96917C24.0543 7.34338 25.7275 8.05512 26.948 8.85198C28.4959 9.86162 29.1521 11.4142 29.1521 13.1767C29.1521 16.4067 26.048 18.4421 22.2528 18.4421C18.4576 18.4421 16.0585 16.5021 16.0585 13.3469L16.078 12.6147H16.0794Z" fill="black"/>
</g>
</g>
</g>
</svg>
